<svg xmlns="http://www.w3.org/2000/svg" viewBox="0 0 805 249.14"><defs><style>.cls-1{fill:#eaeaea;}.cls-2{fill:#010002;}</style></defs><title>Table</title><g id="Table1"><rect class="cls-1" x="408" y="70.14" width="397" height="179"/></g><g id="Table2"><rect class="cls-1" y="70.14" width="397" height="179"/></g><g id="Chair1"><path class="cls-2" d="M729.89,12.34a31.92,31.92,0,1,0,31.92,31.92A31.92,31.92,0,0,0,729.89,12.34Zm0,58.52a26.6,26.6,0,1,1,26.6-26.6A26.63,26.63,0,0,1,729.89,70.86Z" transform="translate(-17 -12.34)"/></g><g id="Chair2"><path class="cls-2" d="M507.49,12.34a31.92,31.92,0,1,0,31.92,31.92A31.92,31.92,0,0,0,507.49,12.34Zm0,58.52a26.6,26.6,0,1,1,26.6-26.6A26.63,26.63,0,0,1,507.49,70.86Z" transform="translate(-17 -12.34)"/></g></svg>